<svg id="Layer_1" data-name="Layer 1" xmlns="http://www.w3.org/2000/svg" viewBox="0 0 395.89 395.89"><defs><style>.cls-1{fill:#bec6c3;}.cls-2{fill:#668386;}</style></defs><title>logo_icon</title><circle class="cls-1" cx="197.94" cy="197.94" r="197.94"/><circle class="cls-2" cx="133.62" cy="190.05" r="28.74"/><circle class="cls-2" cx="205.62" cy="190.05" r="28.74"/><circle class="cls-2" cx="277.63" cy="190.05" r="28.74"/><path class="cls-2" d="M153.74,232.25v83.2s1.16,22.63-18.86,22.63c-26.7,0-24.78-21.93-24.78-21.93v-41S109.66,232.25,153.74,232.25Z" transform="translate(-3 -2.12)"/><path class="cls-2" d="M263.65,232.25v83.2s-1.16,22.63,18.86,22.63c26.7,0,24.78-21.93,24.78-21.93v-41S307.73,232.25,263.65,232.25Z" transform="translate(-3 -2.12)"/><path class="cls-2" d="M189.18,152.67V69.47S188,46.84,208,46.84c26.7,0,24.78,21.93,24.78,21.93v41S233.25,152.67,189.18,152.67Z" transform="translate(-3 -2.12)"/></svg>